# xmcd
#
# Track frame offsets:
#	150
#	6377
#	27326
#	40010
#	55512
#	72875
#	93203
#	114930
#	128193
#
# Disc length: 1961 seconds
#
# Revision: 2
# Processed by: cddbd v1.5.2PL0 Copyright (c) Steve Scherf et al.
# Submitted via: audiograbber 1.83.01
#
DISCID=6807a709
DTITLE=Ivan Zar and Ben Witt - Live at the Perth Blues Club
DYEAR=2003
DGENRE=Blues
TTITLE0=Dallas
TTITLE1=Sail On
TTITLE2=Rollin' n Tumblin'
TTITLE3=Custard Pie
TTITLE4=Catfish Blues
TTITLE5=Boogie Chillun'
TTITLE6=Mary Had A Little Lamb
TTITLE7=Hands Out of my Pocket
TTITLE8=Riding in the Moonlight
EXTD=
EXTT0=
EXTT1=
EXTT2=
EXTT3=
EXTT4=
EXTT5=
EXTT6=
EXTT7=
EXTT8=
PLAYORDER=
